<!DOCTYPE svg PUBLIC "-//W3C//DTD SVG 20010904//EN" "http://www.w3.org/TR/2001/REC-SVG-20010904/DTD/svg10.dtd">
<svg version="1.0" xmlns="http://www.w3.org/2000/svg" width="207px" height="297px" viewBox="0 0 2070 2970"
     preserveAspectRatio="xMidYMid meet">
    <g id="layer101" fill="#949494" stroke="none">
        <path d="M0 1485 l0 -1485 1035 0 1035 0 0 1485 0 1485 -1035 0 -1035 0 0 -1485z"/>
    </g>
    <g id="layer102" fill="#b2b2b2" stroke="none">
        <path d="M0 1485 l0 -1485 1035 0 1035 0 0 1485 0 1485 -1035 0 -1035 0 0 -1485z m308 1040 c10 -22 18 -25 60 -25 42 0 50 3 60 25 10 23 42 36 42 18 0 -5 -18 -54 -41 -110 -35 -87 -45 -103 -63 -103 -19 0 -28 15 -62 102 -21 56 -40 105 -42 110 -9 21 36 5 46 -17z m328 -77 c21 -56 41 -105 42 -110 2 -4 -5 -8 -16 -8 -15 0 -26 19 -51 90 -18 50 -34 90 -36 90 -1 0 -18 -40 -36 -90 -26 -69 -38 -90 -53 -90 -13 0 -16 5 -12 18 59 158 80 202 101 202 18 0 28 -16 61 -102z m88 77 c6 -23 11 -25 61 -25 50 0 55 2 61 25 4 16 13 25 26 25 15 0 18 -4 13 -17 -3 -10 -23 -60 -42 -110 -30 -79 -39 -93 -58 -93 -23 0 -35 24 -101 203 -4 12 -1 17 14 17 13 0 22 -9 26 -25z m226 -85 c0 -91 -3 -110 -15 -110 -12 0 -15 19 -15 110 0 91 3 110 15 110 12 0 15 -19 15 -110z m190 95 c0 -11 -12 -15 -50 -15 l-50 0 0 -95 c0 -78 -3 -95 -15 -95 -12 0 -15 19 -15 110 l0 110 65 0 c51 0 65 -3 65 -15z m68 -10 c10 -22 18 -25 60 -25 42 0 50 3 60 25 10 23 42 36 42 18 0 -5 -18 -54 -41 -110 -35 -87 -45 -103 -63 -103 -19 0 -28 15 -62 102 -21 56 -40 105 -42 110 -9 21 36 5 46 -17z m340 9 c26 -18 29 -59 7 -84 -14 -15 -14 -18 0 -30 20 -16 19 -49 -2 -72 -13 -14 -31 -18 -85 -18 l-68 0 0 110 0 110 63 0 c40 0 70 -5 85 -16z m202 2 c0 -11 -14 -16 -47 -18 l-48 -3 -3 -92 c-2 -74 -6 -93 -17 -93 -12 0 -15 20 -15 110 l0 110 65 0 c50 0 65 -3 65 -14z m190 -1 c0 -12 -13 -15 -55 -15 l-55 0 0 -35 0 -35 55 0 c42 0 55 -3 55 -15 0 -12 -13 -15 -55 -15 -54 0 -55 0 -55 -30 0 -30 1 -30 55 -30 42 0 55 -3 55 -15 0 -12 -15 -15 -75 -15 l-75 0 0 110 0 110 75 0 c60 0 75 -3 75 -15z m-1570 -410 c0 -41 3 -75 8 -75 4 0 32 34 61 75 33 46 62 75 73 75 16 0 18 -11 18 -110 0 -103 -1 -110 -20 -110 -17 0 -19 8 -22 78 l-3 77 -55 -77 c-32 -44 -62 -77 -72 -77 -16 -1 -18 11 -18 109 0 91 3 110 15 110 12 0 15 -15 15 -75z m370 62 c52 -40 63 -100 30 -155 -38 -62 -114 -70 -166 -18 -26 26 -34 42 -34 70 0 42 22 90 47 105 25 14 105 13 123 -2z m210 -97 c0 -91 -3 -110 -15 -110 -12 0 -15 19 -15 110 0 91 3 110 15 110 12 0 15 -19 15 -110z m92 28 l3 -83 34 83 c18 45 36 82 40 82 3 0 19 -33 35 -73 16 -39 33 -76 38 -81 4 -6 8 27 8 72 0 66 3 82 15 82 12 0 15 -19 15 -110 0 -109 0 -110 -24 -110 -20 0 -28 11 -52 70 -16 38 -32 70 -35 70 -4 0 -20 -31 -35 -70 -24 -57 -33 -70 -51 -70 -22 0 -23 3 -23 110 0 90 3 110 15 110 11 0 15 -18 17 -82z m265 62 c5 -17 14 -20 59 -20 43 0 55 4 64 20 10 19 40 28 40 12 0 -4 -17 -53 -39 -108 -33 -86 -41 -99 -62 -99 -20 0 -28 14 -65 108 -39 100 -41 107 -22 107 11 0 22 -8 25 -20z m361 4 c16 -11 22 -25 22 -55 l0 -39 -50 0 c-55 0 -69 17 -17 22 41 4 45 37 5 55 -79 38 -146 -70 -82 -133 26 -26 51 -28 112 -9 34 11 27 -12 -10 -31 -41 -21 -93 -12 -130 22 -23 23 -28 36 -28 77 0 40 5 53 29 78 25 24 38 29 78 29 28 0 58 -7 71 -16z m212 1 c0 -12 -13 -15 -55 -15 l-55 0 0 -35 0 -35 55 0 c30 0 55 -4 55 -10 0 -5 -25 -10 -55 -10 l-55 0 0 -35 0 -35 55 0 c42 0 55 -3 55 -15 0 -12 -14 -15 -70 -15 l-70 0 0 110 0 110 70 0 c56 0 70 -3 70 -15z"/>
        <path d="M330 2463 c0 -10 9 -36 19 -58 l18 -40 16 38 c28 65 26 72 -15 75 -31 3 -38 0 -38 -15z"/>
        <path d="M748 2474 c-6 -5 22 -88 33 -99 4 -3 15 17 27 44 11 27 18 52 14 55 -7 8 -67 8 -74 0z"/>
        <path d="M1230 2463 c0 -10 9 -36 19 -58 l18 -40 16 38 c28 65 26 72 -15 75 -31 3 -38 0 -38 -15z"/>
        <path d="M1440 2484 c0 -35 0 -35 41 -32 79 6 76 68 -2 68 -38 0 -39 -1 -39 -36z"/>
        <path d="M1440 2390 c0 -28 2 -30 39 -30 42 0 65 18 55 44 -4 11 -19 16 -50 16 -42 0 -44 -1 -44 -30z"/>
        <path d="M629 2151 c-27 -28 -31 -37 -26 -69 14 -83 118 -100 145 -24 19 56 -5 103 -60 117 -22 6 -33 1 -59 -24z"/>
        <path d="M1331 2118 c0 -7 8 -33 19 -58 l18 -45 15 35 c33 79 33 80 -12 80 -26 0 -41 -4 -40 -12z"/>
    </g>
    <g id="layer103" fill="#cdcdcd" stroke="none">
        <path d="M0 1485 l0 -1485 1035 0 1035 0 0 1485 0 1485 -1035 0 -1035 0 0 -1485z m305 1045 c5 -17 15 -20 60 -20 45 0 55 3 60 20 4 12 15 20 30 20 23 0 23 0 -19 -107 -38 -95 -46 -108 -68 -111 -24 -3 -29 4 -67 102 -23 57 -41 107 -41 110 0 16 39 3 45 -14z m334 -83 c22 -56 41 -106 41 -110 0 -4 -9 -7 -19 -7 -15 0 -27 19 -52 85 -17 47 -33 85 -35 85 -1 0 -17 -38 -35 -85 -24 -65 -36 -85 -50 -85 -11 0 -19 3 -19 8 0 6 19 57 71 190 5 14 17 22 32 22 21 0 29 -13 66 -103z m86 83 c5 -17 15 -20 60 -20 45 0 55 3 60 20 6 19 45 29 45 13 0 -5 -18 -53 -39 -108 -37 -92 -42 -100 -67 -100 -24 0 -30 8 -65 95 -21 52 -38 101 -38 108 -1 20 37 14 44 -8z m235 -90 c0 -103 -1 -110 -20 -110 -19 0 -20 7 -20 110 0 103 1 110 20 110 19 0 20 -7 20 -110z m180 95 c0 -16 -3 -17 -60 -19 l-35 -1 -3 -93 c-2 -77 -5 -93 -18 -90 -8 2 -15 6 -15 11 1 4 1 52 1 107 l0 100 65 0 c51 0 65 -3 65 -15z m67 -5 c5 -17 14 -20 58 -20 45 0 55 3 60 20 4 13 15 20 30 20 l23 0 -28 -72 c-55 -142 -58 -148 -84 -148 -22 0 -29 12 -65 104 -23 58 -41 107 -41 110 0 16 43 4 47 -14z m353 0 c25 -25 26 -55 1 -77 -17 -14 -17 -18 -5 -30 19 -19 18 -58 -2 -77 -11 -12 -35 -16 -85 -16 l-69 0 0 110 0 110 70 0 c57 0 74 -4 90 -20z m190 5 c0 -11 -12 -15 -45 -15 l-45 0 0 -95 c0 -88 -1 -95 -20 -95 -19 0 -20 7 -20 110 l0 110 65 0 c51 0 65 -3 65 -15z m190 -3 c0 -15 -8 -17 -55 -15 l-55 4 0 -36 c0 -29 4 -36 18 -34 52 5 92 -2 92 -16 0 -12 -13 -15 -55 -15 -54 0 -55 0 -55 -30 0 -30 1 -30 55 -30 42 0 55 -3 55 -15 0 -12 -15 -15 -75 -15 l-75 0 0 110 0 110 75 0 c65 0 75 -2 75 -18z m-1216 -336 c44 -18 66 -52 66 -99 0 -71 -44 -117 -111 -117 -65 0 -108 43 -109 108 0 54 12 78 53 102 38 24 57 25 101 6z m934 -6 c28 -18 32 -25 32 -65 l0 -45 -50 0 c-43 0 -50 3 -50 20 0 16 7 20 30 20 23 0 30 5 30 19 0 34 -75 44 -102 14 -41 -46 -28 -112 24 -134 26 -11 35 -10 60 4 19 11 35 14 45 9 24 -14 -31 -52 -76 -52 -50 0 -83 19 -104 60 -31 62 -7 127 58 156 42 18 65 17 103 -6z m-1285 -67 c0 -40 2 -73 3 -73 2 0 29 34 59 75 37 49 63 75 75 75 19 0 20 -7 20 -110 0 -103 -1 -110 -20 -110 -18 0 -20 7 -20 77 l0 77 -57 -77 c-53 -71 -92 -98 -94 -64 -1 12 0 170 1 195 0 8 7 12 16 10 14 -2 17 -16 17 -75z m579 -33 c-3 -95 -6 -110 -20 -110 -15 0 -17 12 -14 110 3 95 6 110 20 110 15 0 17 -12 14 -110z m90 33 l3 -78 31 75 c18 41 36 76 41 77 5 2 22 -27 38 -64 31 -74 48 -100 45 -68 -1 11 -2 46 -1 78 1 47 4 58 17 55 12 -2 15 -22 17 -111 l2 -107 -28 0 c-19 0 -30 7 -36 23 -5 12 -19 45 -31 72 l-22 50 -30 -72 c-28 -66 -33 -73 -59 -73 l-29 0 0 110 c0 103 1 110 20 110 17 0 19 -8 22 -77z m268 57 c9 -16 21 -20 61 -20 42 0 52 3 56 20 3 13 14 20 29 20 l24 0 -21 -52 c-12 -29 -31 -79 -42 -110 -18 -50 -25 -58 -47 -58 -26 0 -25 -1 -108 211 -7 19 38 8 48 -11z m574 5 c-5 -11 -21 -15 -60 -15 -53 0 -54 0 -54 -30 0 -30 1 -30 55 -30 48 0 55 -2 55 -20 0 -18 -7 -20 -56 -20 -54 0 -55 0 -52 -27 3 -27 6 -28 55 -28 42 1 53 -3 56 -17 5 -16 -3 -18 -74 -18 l-79 0 0 110 0 110 80 0 c66 0 78 -2 74 -15z m-254 -530 c16 -8 31 -24 35 -35 3 -11 41 -208 84 -437 78 -414 84 -478 49 -457 -7 4 -10 4 -6 -1 4 -4 3 -14 -3 -22 -14 -16 -53 -18 -43 -1 4 7 3 8 -5 4 -6 -4 -9 -11 -7 -15 7 -11 -199 -46 -254 -44 -31 1 -40 -1 -30 -7 12 -8 11 -10 -5 -11 -29 -1 -68 -9 -74 -14 -2 -3 -13 3 -24 12 -17 15 -20 16 -15 2 5 -12 -4 -18 -38 -26 -31 -7 -42 -7 -37 1 4 6 -1 5 -10 -3 -13 -10 -24 -11 -46 -3 -26 9 -29 8 -24 -6 3 -11 2 -13 -4 -6 -12 16 -70 27 -77 15 -4 -6 -21 -8 -39 -5 -25 3 -28 2 -12 -5 26 -12 -2 -13 -30 -1 -19 8 -19 9 -1 9 11 1 16 4 13 8 -4 3 -2 12 4 20 9 10 8 13 -5 13 -10 0 -15 -4 -11 -9 3 -5 -5 -17 -17 -25 -25 -18 -42 -21 -33 -6 3 6 -1 7 -9 4 -9 -3 -16 -10 -16 -16 0 -5 5 -6 10 -3 6 3 10 -2 10 -12 0 -16 -1 -16 -16 -1 -10 10 -28 73 -45 160 -105 527 -138 713 -133 733 3 13 14 31 24 40 11 10 146 41 396 89 209 41 387 74 397 75 10 0 31 -6 47 -14z m-621 -1079 c9 -10 8 -15 -3 -19 -10 -4 -13 -1 -9 9 4 10 0 12 -13 7 -12 -4 -15 -3 -10 5 10 16 21 15 35 -2z m84 -13 c-7 -2 -19 -2 -25 0 -7 3 -2 5 12 5 14 0 19 -2 13 -5z"/>
        <path d="M336 2448 c3 -12 12 -35 19 -51 l12 -29 17 41 c22 57 21 61 -20 61 -32 0 -35 -2 -28 -22z"/>
        <path d="M750 2463 c0 -4 7 -27 17 -51 l16 -43 12 28 c30 71 29 73 -9 73 -20 0 -36 -3 -36 -7z"/>
        <path d="M1236 2448 c3 -12 12 -35 19 -51 l12 -29 17 41 c22 57 21 61 -20 61 -32 0 -35 -2 -28 -22z"/>
        <path d="M1447 2513 c-4 -3 -7 -19 -7 -34 0 -25 4 -28 33 -27 61 1 89 35 48 58 -22 11 -64 13 -74 3z"/>
        <path d="M1440 2390 c0 -30 1 -31 43 -28 37 3 42 6 42 28 0 22 -5 25 -42 28 -42 3 -43 2 -43 -28z"/>
        <path d="M630 2152 c-34 -27 -32 -88 4 -118 33 -29 55 -30 90 -3 20 16 26 29 26 60 0 69 -67 104 -120 61z"/>
        <path d="M1333 2115 c2 -5 10 -27 18 -47 7 -21 16 -38 19 -38 8 0 32 76 28 87 -2 5 -18 8 -36 8 -19 1 -31 -3 -29 -10z"/>
        <path d="M1210 1398 c-160 -31 -261 -55 -272 -65 -10 -9 -18 -28 -18 -42 0 -14 25 -156 54 -316 42 -224 51 -293 42 -305 -9 -12 -8 -13 4 -3 12 9 19 8 32 -1 19 -14 51 -13 120 3 27 6 51 10 55 9 5 0 15 1 23 5 8 3 92 19 185 37 94 17 183 38 198 46 16 8 32 12 36 10 24 -15 -98 626 -125 655 -24 26 -42 24 -334 -33z m340 -142 c18 -81 30 -150 28 -152 -3 -2 -82 30 -178 71 -95 41 -174 75 -176 75 -2 0 -20 -32 -39 -71 l-36 -70 -89 48 c-87 46 -100 60 -100 109 0 18 23 25 278 80 152 33 278 60 279 59 1 0 16 -67 33 -149z"/>
        <path d="M1770 710 c0 -7 3 -10 7 -7 3 4 3 10 0 14 -4 3 -7 0 -7 -7z"/>
        <path d="M1203 663 c-16 -6 2 -25 32 -36 18 -6 18 -5 -3 12 -15 13 -18 21 -10 24 7 3 9 5 3 5 -5 0 -16 -2 -22 -5z"/>
        <path d="M1438 663 c7 -3 16 -2 19 1 4 3 -2 6 -13 5 -11 0 -14 -3 -6 -6z"/>
        <path d="M1040 650 c8 -5 20 -10 25 -10 6 0 3 5 -5 10 -8 5 -19 10 -25 10 -5 0 -3 -5 5 -10z"/>
        <path d="M1353 653 c4 -3 10 -3 14 0 3 4 0 7 -7 7 -7 0 -10 -3 -7 -7z"/>
        <path d="M1080 640 c0 -5 7 -7 15 -4 8 4 15 8 15 10 0 2 -7 4 -15 4 -8 0 -15 -4 -15 -10z"/>
        <path d="M1170 643 c0 -6 -9 -9 -20 -6 -11 3 -31 -2 -44 -10 -17 -12 -26 -13 -35 -4 -8 8 -14 8 -23 -2 -11 -10 -10 -11 3 -6 10 4 20 2 24 -4 4 -8 13 -6 28 4 12 8 31 15 42 14 20 0 20 0 0 -9 -15 -7 -16 -9 -4 -9 19 -1 45 26 35 36 -3 3 -6 2 -6 -4z"/>
        <path d="M1380 640 c-8 -5 -10 -10 -5 -10 6 0 17 5 25 10 8 5 11 10 5 10 -5 0 -17 -5 -25 -10z"/>
        <path d="M1213 603 c4 -3 10 -3 14 0 3 4 0 7 -7 7 -7 0 -10 -3 -7 -7z"/>
    </g>
    <g id="layer104" fill="#ebebeb" stroke="none">
        <path d="M0 1485 l0 -1485 1035 0 1035 0 0 1485 0 1485 -1035 0 -1035 0 0 -1485z m310 1045 c8 -16 21 -20 60 -20 40 0 50 4 55 20 4 13 15 20 31 20 13 0 24 -1 24 -2 0 -2 -20 -52 -44 -113 -37 -94 -47 -110 -68 -113 -22 -3 -28 7 -70 113 -46 115 -46 115 -22 115 13 0 28 -9 34 -20z m335 -90 c23 -58 39 -109 35 -113 -20 -23 -44 1 -66 63 -43 125 -37 123 -73 21 -29 -80 -36 -91 -57 -91 -13 0 -24 1 -24 3 0 5 80 209 86 219 3 5 17 8 31 6 23 -3 31 -16 68 -108z m82 90 c4 -17 14 -20 58 -20 44 0 54 3 58 20 3 14 14 20 32 20 14 0 24 -3 22 -7 -3 -5 -24 -57 -47 -116 -40 -102 -43 -108 -68 -105 -22 3 -30 13 -48 63 -12 33 -31 84 -43 113 l-21 52 26 0 c17 0 28 -7 31 -20z m233 -96 c0 -114 0 -115 -22 -112 -22 3 -23 7 -26 116 l-3 112 26 0 25 0 0 -116z m250 96 c8 -16 21 -20 60 -20 40 0 50 4 55 20 4 13 15 20 31 20 l24 0 -20 -52 c-63 -169 -65 -173 -91 -176 -24 -3 -29 5 -69 108 -32 82 -46 107 -52 96 -6 -11 -24 -16 -53 -16 l-44 0 -3 -92 c-3 -85 -5 -93 -23 -93 -19 0 -20 8 -23 113 l-3 112 100 0 c90 0 101 -2 111 -20z m352 3 c21 -19 23 -52 4 -78 -12 -16 -12 -22 2 -42 12 -19 12 -29 4 -49 -15 -31 -49 -44 -118 -44 l-54 0 0 115 0 115 72 0 c52 0 76 -4 90 -17z m198 -3 c0 -17 -7 -20 -50 -20 l-50 0 0 -96 c0 -93 -1 -95 -22 -92 -22 3 -23 7 -26 116 l-3 112 76 0 c68 0 75 -2 75 -20z m188 3 c-2 -14 -15 -19 -61 -21 -53 -3 -57 -5 -57 -27 0 -24 3 -25 55 -25 48 0 55 -2 55 -20 0 -18 -7 -20 -55 -20 -52 0 -55 -1 -55 -25 0 -22 4 -24 58 -27 49 -3 57 -6 57 -23 0 -18 -8 -20 -77 -23 l-78 -3 0 116 0 115 81 0 c71 0 80 -2 77 -17z m-1570 -402 l3 -75 56 77 c35 49 62 77 74 77 18 0 19 -9 19 -115 0 -107 -1 -115 -20 -115 -17 0 -19 8 -22 70 l-3 71 -53 -71 c-40 -54 -58 -70 -77 -70 l-25 0 0 108 c0 60 3 112 7 116 4 4 14 5 23 4 12 -3 16 -20 18 -77z m367 57 c109 -86 18 -257 -109 -204 -39 16 -76 67 -76 104 0 37 30 91 59 107 39 21 94 18 126 -7z m213 -96 l3 -112 -26 0 -25 0 0 108 c0 60 3 112 7 116 4 4 14 5 23 4 12 -3 16 -24 18 -116z m92 48 l5 -65 26 65 c15 35 31 66 36 67 5 2 23 -29 39 -69 l29 -73 5 70 c4 62 7 70 25 70 19 0 20 -8 23 -112 l3 -113 -34 0 c-31 0 -34 4 -51 49 -32 89 -38 91 -68 19 -23 -57 -29 -63 -57 -66 l-31 -3 0 109 c0 60 3 112 7 116 4 4 14 5 23 4 11 -2 16 -20 20 -68z m262 45 c10 -21 18 -25 58 -25 40 0 48 4 58 25 10 22 52 37 52 18 0 -3 -19 -55 -42 -115 -38 -100 -43 -108 -68 -108 -25 0 -30 8 -68 106 -23 58 -42 109 -42 115 0 20 41 8 52 -16z m356 5 c28 -18 32 -25 32 -65 l0 -45 -61 0 c-52 0 -60 2 -57 18 2 11 14 18 36 20 23 2 32 8 32 22 0 35 -68 42 -100 10 -25 -25 -27 -86 -3 -112 18 -20 64 -24 93 -8 10 5 26 7 35 4 14 -6 14 -9 -5 -29 -44 -47 -118 -39 -165 16 -29 35 -33 85 -10 129 30 58 112 77 173 40z m217 -5 c0 -17 -8 -20 -50 -23 -50 -3 -67 -14 -58 -39 3 -9 23 -13 59 -13 47 0 54 -2 54 -20 0 -18 -7 -20 -55 -20 -52 0 -55 -1 -55 -25 0 -24 3 -25 55 -25 48 0 55 -2 55 -20 0 -18 -7 -20 -80 -20 l-80 0 0 115 0 116 78 -3 c69 -3 77 -5 77 -23z m-1129 -531 c60 -26 113 -50 117 -54 4 -4 -23 -12 -60 -18 -74 -12 -113 -35 -127 -75 -7 -19 9 -115 62 -384 40 -197 72 -365 72 -374 0 -13 -58 9 -252 92 -139 60 -259 116 -266 126 -6 9 -12 25 -12 35 0 30 280 662 301 681 30 25 44 22 165 -29z m889 -6 c23 -21 31 -53 105 -448 44 -234 80 -433 80 -442 0 -9 -10 -29 -23 -44 -22 -25 -47 -31 -407 -100 -243 -47 -397 -72 -418 -69 -18 4 -39 16 -48 30 -15 23 -174 822 -174 877 0 51 43 72 207 103 81 15 247 47 368 71 260 50 276 51 310 22z"/>
        <path d="M347 2425 c8 -25 17 -45 19 -45 5 0 15 26 28 68 7 20 4 22 -28 22 l-35 0 16 -45z"/>
        <path d="M750 2465 c0 -2 8 -24 17 -47 l17 -42 17 40 c24 53 24 54 -16 54 -19 0 -35 -2 -35 -5z"/>
        <path d="M1247 2425 c8 -25 17 -45 19 -45 5 0 15 26 28 68 7 20 4 22 -28 22 l-35 0 16 -45z"/>
        <path d="M1440 2485 c0 -23 4 -25 45 -25 41 0 45 2 45 25 0 23 -4 25 -45 25 -41 0 -45 -2 -45 -25z"/>
        <path d="M1440 2395 c0 -23 4 -25 40 -25 28 0 43 5 47 16 8 21 -13 34 -54 34 -29 0 -33 -3 -33 -25z"/>
        <path d="M630 2150 c-26 -26 -27 -90 -2 -113 28 -25 87 -22 106 5 52 74 -41 171 -104 108z"/>
        <path d="M1340 2111 c0 -16 22 -71 29 -71 6 0 31 58 31 73 0 4 -13 7 -30 7 -16 0 -30 -4 -30 -9z"/>
        <path d="M1211 1395 c-263 -52 -291 -61 -291 -99 0 -6 25 -143 56 -305 56 -298 66 -331 105 -331 31 0 543 101 561 111 9 5 19 18 23 29 9 28 -104 611 -123 633 -8 9 -27 17 -41 16 -14 -1 -145 -25 -290 -54z m313 -2 c8 -26 65 -297 63 -299 -1 -1 -54 21 -117 48 -63 27 -145 62 -182 78 l-67 29 -32 -70 c-18 -38 -36 -69 -41 -69 -4 0 -46 21 -93 46 -78 42 -86 49 -95 86 -6 22 -10 41 -8 43 3 2 543 122 560 124 4 1 9 -7 12 -16z"/>
    </g>

</svg>